<svg xmlns="http://www.w3.org/2000/svg" version="1.1" xmlns:xlink="http://www.w3.org/1999/xlink" xmlns:svgjs="http://svgjs.dev/svgjs" width="512" height="512"><svg width="512" height="512" viewBox="0 0 512 512" fill="none" xmlns="http://www.w3.org/2000/svg">
<g clip-path="url(#clip0_1_2)">
<circle cx="256" cy="256" r="256" fill="#DFCF99"></circle>
<path d="M284 256.5C284 271.573 271.58 284 256 284C240.42 284 228 271.573 228 256.5C228 241.427 240.42 229 256 229C271.58 229 284 241.427 284 256.5Z" stroke="white" stroke-width="18"></path>
<g filter="url(#filter0_d_1_2)">
<path fill-rule="evenodd" clip-rule="evenodd" d="M184.104 67.9027L177.835 65.761L174.936 71.7179C169.147 83.6113 165.903 96.9661 165.903 111.057C165.903 147.407 187.449 178.708 218.449 192.915C212.199 202.855 203.681 211.228 193.624 217.304C179.353 186.465 148.136 165.057 111.903 165.057C98.4874 165.057 85.7377 167.998 74.2809 173.276L74.2635 173.284L73.8934 173.453L67.6612 176.289L69.9197 182.753C82.1853 217.857 115.592 243.057 154.903 243.057C158.514 243.057 162.078 242.844 165.584 242.429C164.401 237.274 162.507 232.39 160.01 227.886C158.324 228 156.621 228.057 154.903 228.057C124.674 228.057 98.6055 210.169 86.7361 184.382C94.5957 181.583 103.065 180.057 111.903 180.057C117.074 180.057 122.123 180.581 127 181.577V180.687C161.291 188.035 187 218.515 187 255C187 291.485 161.291 321.965 127 329.313V328.537C122.123 329.534 117.075 330.057 111.903 330.057C103.215 330.057 94.8841 328.583 87.1378 325.874C99.187 300.549 125.011 283.057 154.903 283.057C156.413 283.057 157.912 283.102 159.398 283.19C162.016 278.704 164.029 273.822 165.323 268.655C161.902 268.26 158.425 268.057 154.903 268.057C115.998 268.057 82.8765 292.74 70.3073 327.275L70.3067 327.277L70.259 327.408L67.8995 333.887L74.1574 336.781C85.646 342.096 98.4391 345.057 111.903 345.057C147.82 345.057 178.823 324.018 193.26 293.592C215.216 306.685 229.903 330.662 229.903 358.057C229.903 399.479 196.325 433.057 154.903 433.057C146.463 433.057 138.363 431.666 130.811 429.106C126.888 427.776 122.63 429.878 121.3 433.801C119.971 437.724 122.073 441.982 125.996 443.312C135.078 446.391 144.804 448.057 154.903 448.057C204.609 448.057 244.903 407.763 244.903 358.057C244.903 324.193 226.199 294.71 198.586 279.352C200.748 271.624 201.903 263.475 201.903 255.057C201.903 246.962 200.833 239.107 198.822 231.631C212.962 223.712 224.741 212.091 232.851 198.076C240.215 200.022 247.943 201.057 255.903 201.057V186.719C243.259 186.695 230.446 183.51 218.659 176.833C186.914 158.85 173.065 121.458 183.573 88L184.368 88.4507C184.774 87.1659 185.213 85.8962 185.685 84.6426C211.763 96.3942 229.903 122.616 229.903 153.057C229.903 155.407 229.796 157.73 229.585 160.021C234.25 162.534 239.12 164.317 244.062 165.408C244.617 161.367 244.903 157.243 244.903 153.057C244.903 113.633 219.558 80.147 184.295 67.9682L184.284 67.9641L184.272 67.96L184.104 67.9027ZM327.799 67.9027L334.069 65.761L336.968 71.7179C342.756 83.6113 346 96.9661 346 111.057C346 147.407 324.455 178.708 293.455 192.915C299.704 202.855 308.222 211.228 318.28 217.304C332.551 186.465 363.767 165.057 400 165.057C413.416 165.057 426.166 167.998 437.622 173.276L437.64 173.284L438.01 173.453L444.242 176.289L441.984 182.753C429.718 217.857 396.312 243.057 357 243.057C353.389 243.057 349.825 242.844 346.32 242.429C347.502 237.274 349.396 232.39 351.893 227.886C353.58 228 355.283 228.057 357 228.057C387.23 228.057 413.298 210.169 425.167 184.382C417.308 181.583 408.838 180.057 400 180.057C394.829 180.057 389.78 180.581 384.903 181.577V180.687C350.613 188.035 324.903 218.515 324.903 255C324.903 291.485 350.613 321.965 384.903 329.313V328.537C389.78 329.534 394.829 330.057 400 330.057C408.688 330.057 417.019 328.583 424.766 325.874C412.716 300.549 386.893 283.057 357 283.057C355.49 283.057 353.992 283.102 352.505 283.19C349.887 278.704 347.875 273.822 346.58 268.655C350.001 268.26 353.478 268.057 357 268.057C395.905 268.057 429.027 292.74 441.596 327.275L441.597 327.277L441.644 327.408L444.004 333.887L437.746 336.781C426.257 342.096 413.464 345.057 400 345.057C364.083 345.057 333.081 324.018 318.644 293.592C296.688 306.685 282 330.662 282 358.057C282 399.479 315.579 433.057 357 433.057C365.44 433.057 373.54 431.666 381.092 429.106C385.015 427.776 389.273 429.878 390.603 433.801C391.933 437.724 389.831 441.982 385.908 443.312C376.825 446.391 367.099 448.057 357 448.057C307.294 448.057 267 407.763 267 358.057C267 324.193 285.704 294.71 313.317 279.352C311.156 271.624 310 263.475 310 255.057C310 246.962 311.071 239.107 313.081 231.631C298.942 223.712 287.163 212.091 279.053 198.076C271.689 200.022 263.96 201.057 256 201.057V186.719C268.645 186.695 281.458 183.51 293.244 176.833C324.989 158.85 338.839 121.458 328.331 88L327.535 88.4507C327.129 87.1659 326.69 85.8962 326.218 84.6426C300.14 96.3942 282 122.616 282 153.057C282 155.407 282.108 157.73 282.318 160.021C277.653 162.534 272.783 164.317 267.841 165.408C267.286 161.367 267 157.243 267 153.057C267 113.633 292.345 80.147 327.608 67.9682L327.62 67.9641L327.632 67.96L327.799 67.9027Z" fill="white"></path>
</g>
</g>
<defs>
<filter id="SvgjsFilter1008" x="65.6612" y="65.761" width="380.581" height="386.296" filterUnits="userSpaceOnUse" color-interpolation-filters="sRGB">
<feFlood flood-opacity="0" result="BackgroundImageFix"></feFlood>
<feColorMatrix in="SourceAlpha" type="matrix" values="0 0 0 0 0 0 0 0 0 0 0 0 0 0 0 0 0 0 127 0" result="hardAlpha"></feColorMatrix>
<feOffset dy="2"></feOffset>
<feGaussianBlur stdDeviation="1"></feGaussianBlur>
<feComposite in2="hardAlpha" operator="out"></feComposite>
<feColorMatrix type="matrix" values="0 0 0 0 0 0 0 0 0 0 0 0 0 0 0 0 0 0 0.15 0"></feColorMatrix>
<feBlend mode="normal" in2="BackgroundImageFix" result="effect1_dropShadow_1_2"></feBlend>
<feBlend mode="normal" in="SourceGraphic" in2="effect1_dropShadow_1_2" result="shape"></feBlend>
</filter>
<clipPath id="SvgjsClipPath1007">
<rect width="512" height="512" fill="white"></rect>
</clipPath>
</defs>
</svg><style>@media (prefers-color-scheme: light) { :root { filter: none; } }
@media (prefers-color-scheme: dark) { :root { filter: none; } }
</style></svg>