<svg width="512" height="512" viewBox="0 0 512 512" fill="none" xmlns="http://www.w3.org/2000/svg">
  <g clip-path="url(#clip0_1_2)">
    <!-- Fond circulaire -->
    <circle cx="256" cy="256" r="256" fill="#DFCF99"/>

    <!-- Cercle central avec animation de pulsation -->
    <path d="M284 256.5C284 271.573 271.58 284 256 284C240.42 284 228 271.573 228 256.5C228 241.427 240.42 229 256 229C271.58 229 284 241.427 284 256.5Z" stroke="white" stroke-width="18">
      <animate attributeName="opacity" values="1;0.3;1" dur="2.5s" repeatCount="indefinite" />
      <animate attributeName="stroke-width" values="18;22;18" dur="2.5s" repeatCount="indefinite" />
    </path>

    <g filter="url(#filter0_d_1_2)">
      <!-- Chemin complexe avec animation de dessin progressif en boucle -->
      <path d="M334.069 66.9929L336.968 72.9497C342.756 84.8432 346 98.198 346 112.289C346 148.639 324.455 179.94 293.455 194.147C299.704 204.087 308.222 212.46 318.28 218.535C332.551 187.697 363.767 166.289 400 166.289C413.416 166.289 426.166 169.23 437.622 174.508L437.64 174.516L444.242 177.521L441.984 183.985C429.718 219.089 396.312 244.289 357 244.289C353.751 244.289 350.54 244.117 347.375 243.78C348.624 238.595 350.635 233.696 353.287 229.199C354.516 229.259 355.754 229.289 357 229.289C387.23 229.289 413.298 211.401 425.167 185.614C417.308 182.815 408.838 181.289 400 181.289C367.263 181.289 339.406 202.268 329.178 231.538C326.473 239.278 325 247.603 325 256.289C325 297.71 358.579 331.289 400 331.289C408.688 331.289 417.019 329.815 424.766 327.106C412.716 301.781 386.893 284.289 357 284.289C355.976 284.289 354.957 284.31 353.944 284.35C351.159 279.871 349.019 274.97 347.649 269.77C350.725 269.452 353.845 269.289 357 269.289C395.905 269.289 429.027 293.971 441.596 328.507L441.597 328.509L444.004 335.118L437.746 338.013C426.257 343.328 413.464 346.289 400 346.289C364.083 346.289 333.081 325.25 318.644 294.824C296.688 307.917 282 331.894 282 359.289C282 400.711 315.579 434.289 357 434.289C365.44 434.289 373.54 432.898 381.092 430.338C385.015 429.008 389.273 431.11 390.603 435.033C391.933 438.956 389.831 443.214 385.908 444.544C376.825 447.623 367.099 449.289 357 449.289C307.294 449.289 267 408.995 267 359.289C267 325.424 285.704 295.941 313.317 280.584C311.156 272.856 310 264.707 310 256.289C310 248.194 311.071 240.339 313.081 232.863C298.942 224.944 287.163 213.323 279.053 199.308C271.763 201.234 264.117 202.268 256.242 202.289V202.296C248.282 202.296 240.554 201.261 233.19 199.315C225.079 213.33 213.3 224.951 199.161 232.87C201.172 240.346 202.242 248.201 202.242 256.296C202.242 264.715 201.086 272.863 198.925 280.591C226.538 295.949 245.242 325.432 245.242 359.296C245.242 409.002 204.948 449.296 155.242 449.296C145.143 449.296 135.417 447.63 126.334 444.551C122.412 443.221 120.309 438.963 121.639 435.04C122.969 431.117 127.227 429.015 131.15 430.345C138.702 432.905 146.802 434.296 155.242 434.296C196.664 434.296 230.242 400.718 230.242 359.296C230.242 331.901 215.555 307.924 193.599 294.831C179.161 325.257 148.159 346.296 112.242 346.296C98.7779 346.296 85.9848 343.335 74.4962 338.02L68.2383 335.126L70.6455 328.516L70.6461 328.514C83.2153 293.979 116.337 269.296 155.242 269.296C158.398 269.296 161.517 269.459 164.593 269.777C163.224 274.977 161.083 279.878 158.298 284.357C157.285 284.317 156.266 284.296 155.242 284.296C125.349 284.296 99.5258 301.788 87.4766 327.113C95.2229 329.822 103.554 331.296 112.242 331.296C153.664 331.296 187.242 297.718 187.242 256.296C187.242 247.61 185.769 239.285 183.064 231.546C172.836 202.275 144.979 181.296 112.242 181.296C103.404 181.296 94.9345 182.822 87.0749 185.621C98.9443 211.408 125.012 229.296 155.242 229.296C156.488 229.296 157.726 229.266 158.955 229.206C161.608 233.703 163.618 238.602 164.867 243.787C161.702 244.124 158.491 244.296 155.242 244.296C115.931 244.296 82.5241 219.096 70.2585 183.992L68 177.528L74.6023 174.523L74.6197 174.515C86.0765 169.237 98.8262 166.296 112.242 166.296C148.475 166.296 179.692 187.704 193.962 218.543C204.02 212.467 212.538 204.094 218.787 194.154C187.788 179.947 166.242 148.646 166.242 112.296C166.242 98.2051 169.486 84.8503 175.274 72.9569L178.174 67L184.622 69.2031L184.634 69.2072C219.897 81.386 245.242 114.872 245.242 154.296C245.242 157.922 245.027 161.501 244.609 165.02C240.022 163.866 235.519 162.086 231.213 159.647C230.838 159.434 230.466 159.217 230.098 158.997C230.193 157.443 230.242 155.876 230.242 154.296C230.242 123.855 212.102 97.6332 186.024 85.8816C182.934 94.0904 181.242 102.989 181.242 112.296C181.242 145.186 202.417 173.149 231.899 183.26C239.45 185.849 247.554 187.269 256 187.296V187.289C264.534 187.289 272.72 185.867 280.343 183.252C309.825 173.141 331 145.178 331 112.289C331 102.982 329.308 94.0833 326.218 85.8744C300.14 97.6261 282 123.848 282 154.289C282 155.869 282.049 157.436 282.145 158.99C281.776 159.21 281.405 159.427 281.029 159.639C276.723 162.079 272.22 163.859 267.633 165.012C267.215 161.494 267 157.915 267 154.289C267 114.864 292.345 81.3789 327.608 69.2L327.62 69.1959L334.069 66.9929Z" fill="white" stroke="white" stroke-width="1">
        <animate
          attributeName="stroke-dasharray"
          values="0 4200;4200 0;4200 0;0 4200"
          dur="5s"
          repeatCount="indefinite"
          calcMode="linear" />
        <animate
          attributeName="fill-opacity"
          values="0;0;1;1;0"
          dur="5s"
          repeatCount="indefinite"
          calcMode="linear" />
      </path>
    </g>
  </g>
  <defs>
    <filter id="filter0_d_1_2" x="66" y="66.9929" width="380.242" height="386.303" filterUnits="userSpaceOnUse" color-interpolation-filters="sRGB">
      <feFlood flood-opacity="0" result="BackgroundImageFix"/>
      <feColorMatrix in="SourceAlpha" type="matrix" values="0 0 0 0 0 0 0 0 0 0 0 0 0 0 0 0 0 0 127 0" result="hardAlpha"/>
      <feOffset dy="2"/>
      <feGaussianBlur stdDeviation="1"/>
      <feComposite in2="hardAlpha" operator="out"/>
      <feColorMatrix type="matrix" values="0 0 0 0 0 0 0 0 0 0 0 0 0 0 0 0 0 0 0.15 0"/>
      <feBlend mode="normal" in2="BackgroundImageFix" result="effect1_dropShadow_1_2"/>
      <feBlend mode="normal" in="SourceGraphic" in2="effect1_dropShadow_1_2" result="shape"/>
    </filter>
    <clipPath id="clip0_1_2">
      <rect width="512" height="512" fill="white"/>
    </clipPath>
  </defs>
</svg>
